<?xml version="1.0" standalone="no"?>
<!DOCTYPE svg PUBLIC "-//W3C//DTD SVG 20010904//EN"
 "http://www.w3.org/TR/2001/REC-SVG-20010904/DTD/svg10.dtd">
<svg version="1.0" xmlns="http://www.w3.org/2000/svg"
 width="558.000000pt" height="558.000000pt" viewBox="0 0 558.000000 558.000000"
 preserveAspectRatio="xMidYMid meet">
<metadata>
Created by potrace 1.11, written by Peter Selinger 2001-2013
</metadata>
<g transform="translate(0.000000,558.000000) scale(0.100000,-0.100000)"
fill="#000000" stroke="none">
<path d="M0 2790 l0 -2790 2790 0 2790 0 0 2790 0 2790 -2790 0 -2790 0 0
-2790z m3014 2260 c102 -16 209 -32 254 -37 23 -3 42 -9 42 -14 0 -5 20 -9 45
-9 25 0 45 -4 45 -10 0 -5 14 -10 30 -10 17 0 30 -4 30 -10 0 -5 15 -10 34
-10 19 0 36 -3 38 -7 3 -7 59 -31 136 -57 17 -6 32 -14 32 -18 0 -5 11 -8 25
-8 14 0 25 -4 25 -10 0 -5 9 -10 20 -10 11 0 20 -4 20 -8 0 -4 20 -16 45 -26
25 -11 45 -22 45 -26 0 -4 14 -13 30 -20 17 -7 30 -16 30 -21 0 -5 9 -9 20 -9
11 0 20 -4 20 -10 0 -5 7 -10 15 -10 8 0 15 -4 15 -9 0 -5 8 -12 19 -16 10 -3
33 -19 50 -35 17 -17 36 -30 41 -30 6 0 21 -10 34 -22 12 -13 35 -32 51 -43
48 -34 285 -275 285 -290 0 -3 14 -20 31 -37 17 -18 38 -45 47 -60 9 -16 20
-28 24 -28 4 0 8 -8 8 -18 0 -10 9 -24 20 -32 11 -8 20 -18 20 -22 0 -4 16
-32 35 -62 19 -30 35 -60 35 -66 0 -5 5 -10 10 -10 6 0 10 -11 10 -25 0 -14 3
-25 8 -25 4 0 20 -29 37 -65 16 -36 33 -65 37 -65 4 0 8 -11 8 -25 0 -14 5
-25 10 -25 6 0 10 -13 10 -30 0 -16 5 -30 10 -30 6 0 10 -9 10 -20 0 -11 4
-28 9 -38 5 -9 21 -57 36 -107 14 -49 30 -104 36 -121 5 -17 9 -47 9 -67 0
-20 5 -37 10 -37 6 0 10 -33 10 -80 0 -47 4 -80 10 -80 6 0 10 -78 10 -215 0
-137 -4 -215 -10 -215 -6 0 -10 -35 -10 -85 0 -50 -4 -85 -10 -85 -5 0 -10
-22 -10 -49 0 -28 -4 -53 -10 -56 -5 -3 -10 -18 -10 -33 0 -15 -12 -58 -25
-97 -14 -38 -25 -78 -25 -87 0 -10 -4 -18 -10 -18 -5 0 -10 -13 -10 -30 0 -16
-4 -30 -10 -30 -5 0 -10 -13 -10 -30 0 -16 -4 -30 -10 -30 -5 0 -10 -5 -10
-12 0 -15 -73 -162 -82 -166 -5 -2 -8 -12 -8 -23 0 -10 -4 -19 -10 -19 -5 0
-10 -9 -10 -20 0 -11 -4 -20 -9 -20 -5 0 -12 -11 -15 -25 -4 -14 -10 -25 -15
-25 -5 0 -14 -13 -21 -30 -7 -16 -16 -30 -21 -30 -5 0 -9 -7 -9 -15 0 -8 -4
-15 -10 -15 -5 0 -10 -7 -10 -15 0 -9 -10 -26 -22 -39 -13 -13 -32 -36 -43
-51 -11 -16 -32 -41 -47 -58 -16 -16 -28 -32 -28 -36 0 -10 -218 -231 -227
-231 -5 0 -29 -20 -55 -45 -27 -25 -54 -45 -61 -45 -7 0 -19 -9 -27 -20 -8
-11 -18 -20 -23 -20 -4 0 -13 -5 -20 -10 -33 -28 -118 -80 -130 -80 -7 0 -19
-9 -27 -20 -8 -11 -19 -20 -24 -20 -14 0 -160 -74 -164 -82 -2 -5 -17 -8 -33
-8 -16 0 -29 -4 -29 -10 0 -5 -8 -10 -18 -10 -10 0 -22 -3 -26 -7 -7 -8 -58
-27 -131 -49 -27 -9 -60 -20 -73 -25 -13 -5 -36 -9 -52 -9 -17 0 -30 -4 -30
-10 0 -5 -25 -10 -55 -10 -30 0 -55 -4 -55 -9 0 -33 -735 -33 -756 0 -3 5 -27
9 -55 9 -27 0 -49 5 -49 10 0 6 -16 10 -35 10 -19 0 -43 4 -53 9 -9 5 -57 22
-107 37 -49 15 -91 32 -93 36 -2 4 -15 8 -28 8 -13 0 -24 5 -24 10 0 6 -13 10
-30 10 -16 0 -30 3 -30 8 0 4 -29 20 -65 37 -36 16 -65 33 -65 37 0 4 -9 8
-20 8 -11 0 -20 5 -20 10 0 6 -7 10 -15 10 -8 0 -15 5 -15 10 0 6 -9 10 -19
10 -11 0 -21 3 -23 8 -2 4 -31 25 -65 47 -35 22 -63 43 -63 48 0 4 -7 7 -15 7
-8 0 -15 5 -15 10 0 6 -5 10 -11 10 -6 0 -16 6 -23 13 -7 6 -31 26 -52 42 -21
17 -73 65 -116 108 -43 42 -82 77 -88 77 -5 0 -10 5 -10 10 0 6 -15 26 -32 45
-63 67 -78 84 -78 92 0 5 -9 15 -20 23 -11 8 -20 21 -20 29 0 7 -8 21 -18 30
-10 9 -27 31 -37 49 -11 17 -23 32 -27 32 -4 0 -8 8 -8 18 0 10 -9 24 -20 32
-11 8 -20 20 -20 26 0 15 -51 108 -62 112 -4 2 -8 12 -8 23 0 10 -4 19 -10 19
-5 0 -10 11 -10 25 0 14 -4 25 -10 25 -5 0 -10 9 -10 20 0 11 -4 20 -10 20 -5
0 -10 11 -10 25 0 14 -4 25 -10 25 -5 0 -10 7 -10 15 0 13 -20 65 -41 107 -5
10 -9 29 -9 43 0 14 -4 25 -10 25 -5 0 -10 16 -10 35 0 19 -4 35 -10 35 -5 0
-10 20 -10 45 0 25 -4 45 -9 45 -5 0 -11 19 -14 43 -3 23 -14 110 -26 192 -23
164 -26 308 -10 425 18 130 30 223 35 273 3 26 10 47 15 47 5 0 9 18 9 40 0
22 5 40 10 40 6 0 10 16 10 35 0 19 5 35 10 35 6 0 10 11 10 25 0 14 4 33 9
43 5 9 17 37 26 62 9 25 21 53 26 62 5 10 9 25 9 33 0 8 5 15 10 15 6 0 10 11
10 25 0 14 5 25 10 25 6 0 10 9 10 20 0 11 5 20 10 20 6 0 10 9 10 20 0 11 4
20 8 20 5 0 17 20 28 45 10 25 22 45 26 45 4 0 8 7 8 15 0 9 9 25 20 37 11 12
20 28 20 35 0 7 5 13 10 13 6 0 10 5 10 10 0 10 8 22 38 55 6 7 12 18 12 24 0
6 5 11 10 11 6 0 10 7 10 15 0 8 5 15 10 15 6 0 10 5 10 10 0 6 10 21 23 34
38 40 87 96 87 100 0 6 140 146 146 146 3 0 15 10 28 23 56 53 97 87 106 87 6
0 10 5 10 10 0 6 7 10 15 10 8 0 15 5 15 10 0 6 5 10 11 10 7 0 19 8 28 18 9
10 31 27 49 37 17 11 32 23 32 27 0 4 9 8 20 8 11 0 20 4 20 8 0 5 16 14 35
22 19 8 35 17 35 21 0 4 20 15 45 26 25 10 45 21 45 26 0 4 9 7 20 7 11 0 20
5 20 10 0 6 9 10 20 10 11 0 20 5 20 10 0 6 8 10 18 10 10 0 42 11 70 25 29
14 58 25 66 25 8 0 18 5 21 10 3 6 19 10 36 10 16 0 29 5 29 10 0 6 16 10 35
10 19 0 35 5 35 10 0 6 17 10 38 10 21 0 42 4 47 9 6 5 28 11 50 15 97 13 193
28 235 35 65 12 322 13 394 1z"/>
</g>
</svg>
